<svg width="78" height="82" viewBox="0 0 78 82" fill="none" xmlns="http://www.w3.org/2000/svg">
<path d="M77.26 1.89884V0.183838H0.739999V1.89884C0.739999 1.89884 0.739999 30.8076 0.739999 30.9801C0.72127 42.495 4.47763 53.6987 11.4337 62.8751C11.5412 63.0176 11.6512 63.1588 11.7612 63.3001L1.7175 73.3426L4.14375 75.7688L13.955 65.9576C16.7537 69.1295 19.9216 71.9554 23.3913 74.3751C28.0096 77.6016 33.1163 80.0651 38.5163 81.6713L39.0062 81.8163L39.4963 81.6713C44.8925 80.0651 49.7787 77.2963 54.6212 74.3751C60.4462 70.8501 63.7463 67.1751 66.5788 62.8751C69.6813 58.1676 72.6287 53.4088 74.4437 48.0963C76.3248 42.5873 77.2815 36.8051 77.275 30.9838C77.2625 30.8076 77.26 1.89884 77.26 1.89884ZM14.1687 60.8001C7.66386 52.2212 4.15111 41.7462 4.16875 30.9801C4.16875 30.8338 4.16875 9.83384 4.16875 3.61509H71.4425L14.2075 60.8501C14.195 60.8338 14.1812 60.8176 14.1687 60.8001ZM71.185 46.9826C68.6562 54.3559 64.4237 61.0287 58.8314 66.4588C53.239 71.8889 46.4445 75.9232 39 78.2338C30.2457 75.5185 22.4174 70.4256 16.3875 63.5226L73.8288 6.08134C73.8288 14.0963 73.8288 30.8488 73.8288 30.9801C73.8353 36.4235 72.942 41.8305 71.185 46.9826Z" fill="white"/>
</svg>
