<svg width="54" height="62" viewBox="0 0 54 62" fill="none" xmlns="http://www.w3.org/2000/svg">
<path fill-rule="evenodd" clip-rule="evenodd" d="M27.1406 61.5183C18.2044 57.7743 11.4033 52.5211 6.9202 45.8983C3.2603 40.4922 1.11027 34.1409 0.529207 27.0208C-0.329096 16.503 2.52305 7.36953 3.36427 4.95223C5.68757 3.92279 14.6169 0.369141 27.1406 0.369141C39.6639 0.369141 48.5935 3.92279 50.917 4.95223C51.7582 7.36929 54.6099 16.5028 53.7518 27.0208C53.171 34.1409 51.0207 40.492 47.3611 45.8983C42.8778 52.5211 36.0764 57.7746 27.1406 61.5183ZM27.1406 60.0311C18.7162 56.4083 12.2974 51.3978 8.05574 45.132C4.52972 39.9231 2.4573 33.7922 1.8957 26.9098C1.11834 17.3812 3.45708 9.03471 4.46777 5.96817C7.43883 4.7216 15.7482 1.73802 27.1409 1.73802C38.5333 1.73802 46.8424 4.72112 49.814 5.96793C50.8247 9.03447 53.1634 17.3812 52.3861 26.9096C51.8242 33.7922 49.7518 39.9231 46.2258 45.1318C41.9841 51.3978 35.5651 56.4085 27.1411 60.0311" fill="white"/>
<path fill-rule="evenodd" clip-rule="evenodd" d="M15.187 43.9387C14.9824 43.7391 14.7405 43.5803 14.4683 43.467C14.1951 43.3528 13.8986 43.2954 13.5867 43.2954C13.2751 43.2954 12.9784 43.3528 12.7049 43.467C12.4329 43.5803 12.191 43.7391 11.9864 43.9387C11.7818 44.1383 11.619 44.3744 11.5029 44.6399C11.3861 44.9063 11.327 45.1957 11.327 45.5003C11.327 45.8049 11.3864 46.0941 11.5029 46.3605C11.619 46.6258 11.7813 46.8616 11.9864 47.0617C12.191 47.2613 12.4329 47.4201 12.7049 47.5336C12.9779 47.6476 13.2746 47.7052 13.5867 47.7052C13.8986 47.7052 14.1953 47.6476 14.4683 47.5336C14.7405 47.4201 14.9822 47.2613 15.187 47.0617C15.3914 46.8623 15.554 46.6262 15.6705 46.3605C15.7873 46.0939 15.8464 45.8044 15.8464 45.5003C15.8464 45.1962 15.7873 44.9068 15.6705 44.6399C15.5537 44.3742 15.3911 44.1381 15.187 43.9387ZM15.1042 45.5003C15.1042 45.712 15.0648 45.9125 14.9872 46.095C14.9098 46.2778 14.8008 46.438 14.6639 46.5713C14.5264 46.7052 14.3631 46.8123 14.1785 46.8893C13.8117 47.0434 13.3615 47.0434 12.995 46.8893C12.8103 46.8121 12.647 46.7052 12.5096 46.571C12.3726 46.438 12.2639 46.2778 12.1865 46.095C12.1091 45.9125 12.0697 45.7125 12.0697 45.5003C12.0697 45.2882 12.1091 45.0876 12.1865 44.9054C12.2639 44.7231 12.3726 44.5626 12.5098 44.4292C12.6475 44.2955 12.8105 44.1883 12.9952 44.1111C13.1787 44.034 13.3781 43.9949 13.587 43.9949C13.7958 43.9949 13.995 44.034 14.1785 44.1111C14.3629 44.1883 14.526 44.2952 14.6639 44.4292C14.8008 44.5624 14.9098 44.7226 14.9872 44.9051C15.0645 45.0881 15.1039 45.2882 15.1039 45.5003H15.1042Z" fill="white"/>
<path fill-rule="evenodd" clip-rule="evenodd" d="M19.3162 46.0095C19.7769 45.7494 20.0024 45.3055 20.0024 44.8027C20.0024 43.997 19.4766 43.3442 18.4987 43.3442H16.9316V47.6562H17.6739V44.0617H18.4569C18.8666 44.0617 19.1987 44.3934 19.1987 44.8025C19.1987 45.2114 18.8666 45.5432 18.4569 45.5432H17.888L19.638 47.6559H20.6369L19.3162 46.0092" fill="white"/>
<path fill-rule="evenodd" clip-rule="evenodd" d="M24.475 46.9644H22.278V43.3235H21.536V47.6335H24.1142L24.475 46.9644Z" fill="white"/>
<path fill-rule="evenodd" clip-rule="evenodd" d="M27.3375 43.0278L25.1421 47.6332H25.9598L27.3375 44.7056L27.7832 45.6487H27.3375L27.0267 46.3179H28.1003L28.7149 47.6334H29.5326L27.3375 43.0281" fill="white"/>
<path fill-rule="evenodd" clip-rule="evenodd" d="M30.3519 44.9995L33.2055 47.7584V43.4792H32.3885V45.9422L29.6548 43.1831V46.1475L30.3519 47.4626V44.9993" fill="white"/>
<path fill-rule="evenodd" clip-rule="evenodd" d="M37.1077 43.9627C36.909 43.7711 36.6714 43.6187 36.4006 43.5092C36.1302 43.3997 35.835 43.3442 35.5235 43.3442H34.0609V47.6564H35.5235C35.8352 47.6564 36.1302 47.6007 36.4006 47.4912C36.6714 47.3817 36.909 47.2293 37.1077 47.0377C37.3059 46.846 37.4645 46.6163 37.5789 46.3546C37.6938 46.0922 37.7519 45.8047 37.7519 45.5003C37.7519 45.1957 37.6938 44.9087 37.5789 44.646C37.4645 44.3841 37.3059 44.1544 37.1077 43.9627ZM34.8034 44.0134H35.4502C35.6641 44.0134 35.8675 44.0518 36.0552 44.1274C36.2437 44.2033 36.4113 44.309 36.5528 44.4417C36.6935 44.5735 36.806 44.7326 36.8877 44.9141C36.9684 45.0945 37.0097 45.2917 37.0097 45.5001C37.0097 45.7122 36.9686 45.9102 36.8879 46.0889C36.8067 46.2686 36.694 46.4264 36.5528 46.5587C36.4113 46.6912 36.2437 46.7969 36.0552 46.873C35.8677 46.9484 35.6641 46.9868 35.4502 46.9868H34.8034V44.0134Z" fill="white"/>
<path fill-rule="evenodd" clip-rule="evenodd" d="M42.7776 44.6399C42.6608 44.3742 42.4982 44.1381 42.2941 43.9387C42.0892 43.7391 41.8476 43.5803 41.5753 43.467C41.3021 43.353 41.0057 43.2954 40.6938 43.2954C40.3819 43.2954 40.0854 43.353 39.812 43.467C39.54 43.5803 39.2981 43.7391 39.0935 43.9387C38.8889 44.1383 38.726 44.3744 38.61 44.6399C38.4932 44.9063 38.4341 45.1957 38.4341 45.5003C38.4341 45.8049 38.4934 46.0941 38.61 46.3605C38.7263 46.6258 38.8889 46.8616 39.0935 47.0617C39.2981 47.2613 39.54 47.4201 39.812 47.5336C40.0849 47.6476 40.3816 47.7052 40.6935 47.7052C41.0054 47.7052 41.3024 47.6476 41.5753 47.5336C41.8476 47.4201 42.0892 47.2613 42.2941 47.0617C42.4984 46.8623 42.661 46.6262 42.7776 46.3605C42.8941 46.0939 42.9535 45.8044 42.9535 45.5003C42.9537 45.1962 42.8944 44.9068 42.7776 44.6399ZM42.211 45.5003C42.211 45.712 42.1718 45.9125 42.0942 46.095C42.0168 46.2778 41.9079 46.438 41.7709 46.5713C41.633 46.7052 41.4702 46.8123 41.2855 46.8893C40.9186 47.0434 40.4683 47.0434 40.1018 46.8893C39.9169 46.8121 39.7538 46.7052 39.6164 46.571C39.4794 46.438 39.3707 46.2778 39.2933 46.095C39.216 45.9125 39.1763 45.7125 39.1763 45.5003C39.1763 45.2882 39.2157 45.0876 39.2933 44.9054C39.3707 44.7231 39.4797 44.5626 39.6166 44.4292C39.7541 44.2955 39.9174 44.1883 40.102 44.1111C40.2855 44.034 40.4849 43.9949 40.6938 43.9949C40.9029 43.9949 41.102 44.034 41.2858 44.1111C41.4699 44.1883 41.6333 44.2952 41.7712 44.4292C41.9084 44.5624 42.0168 44.7226 42.0944 44.9051C42.1721 45.0881 42.2112 45.2882 42.2112 45.5003H42.211Z" fill="white"/>
<path fill-rule="evenodd" clip-rule="evenodd" d="M24.0208 51.9821C23.9643 52.0679 23.8997 52.1471 23.8266 52.2182C23.6889 52.3519 23.5259 52.459 23.3412 52.5363C22.9745 52.6904 22.5242 52.6904 22.1577 52.5363C21.9728 52.4588 21.8095 52.3517 21.6723 52.2182C21.5351 52.085 21.4264 51.925 21.349 51.742C21.2716 51.5595 21.2322 51.3592 21.2322 51.147C21.2322 50.9351 21.2716 50.7348 21.349 50.5523C21.4264 50.37 21.5353 50.2096 21.6723 50.0761C21.81 49.9424 21.9733 49.8353 22.1577 49.758C22.3412 49.681 22.5403 49.6421 22.7494 49.6421C22.9583 49.6421 23.1577 49.681 23.3412 49.758C23.5256 49.8353 23.6884 49.9422 23.8266 50.0761C23.8997 50.147 23.9643 50.2264 24.0208 50.3124V49.3212C23.8992 49.241 23.7689 49.1716 23.631 49.114C23.3578 49 23.0613 48.9421 22.7494 48.9421C22.4378 48.9421 22.1411 49 21.8679 49.114C21.5956 49.2275 21.354 49.3863 21.1491 49.5859C20.9445 49.7853 20.7817 50.0214 20.6656 50.2866C20.5488 50.5533 20.4897 50.8425 20.4897 51.147C20.4897 51.4516 20.5491 51.7413 20.6656 52.0077C20.7819 52.2727 20.9445 52.5088 21.1491 52.7086C21.3535 52.9082 21.5956 53.067 21.8676 53.1806C22.1404 53.2946 22.4373 53.3522 22.7494 53.3522C23.0611 53.3522 23.358 53.2946 23.631 53.1806C23.7691 53.1232 23.899 53.0535 24.0205 52.9732V51.9821" fill="white"/>
<path fill-rule="evenodd" clip-rule="evenodd" d="M25.0936 48.9421H25.8361V53.2543H25.0936V48.9421Z" fill="white"/>
<path fill-rule="evenodd" clip-rule="evenodd" d="M29.6393 48.9187H26.7549V49.5876H27.9529V53.2287H28.6946V49.5876H30.0827L29.6396 48.9187" fill="white"/>
<path fill-rule="evenodd" clip-rule="evenodd" d="M33.556 48.9421L32.4022 50.5848L31.2484 48.9421H30.3713C30.3953 48.9912 32.0312 51.3606 32.0312 51.3606V53.2543H32.7734V51.3606L34.4483 48.9421H33.5563" fill="white"/>
</svg>
