<svg width="78" height="82" viewBox="0 0 78 82" fill="none" xmlns="http://www.w3.org/2000/svg">
<path d="M14.395 55.0676L13.9438 55.5188L15.1863 56.7613L14.9 57.0476L13.6575 55.8051L13.2063 56.2563L12.9738 56.0238L14.1625 54.8351L14.395 55.0676ZM16.3275 54.7601L15.6838 53.3138L16.095 52.9026L17.57 54.3751L17.3013 54.6438L16.1488 53.4913L16.1413 53.4988L16.8538 55.0913L16.6538 55.2913L15.0613 54.5801L15.0538 54.5863L16.2063 55.7388L15.9375 56.0076L14.4638 54.5326L14.875 54.1251L16.3275 54.7601Z" fill="white"/>
<path d="M30.1175 30.9401L31.05 33.8114L28.6075 32.0376L26.1662 33.8114L27.0987 30.9401L24.6575 29.1664H27.6762L28.6075 26.2964L29.54 29.1664H32.5575L30.1175 30.9401Z" fill="white"/>
<path d="M16.0675 30.9401L18.5087 29.1664H15.4912L14.5575 26.2964L13.6262 29.1664H10.6075L13.0487 30.9401L12.1162 33.8114L14.5575 32.0376L16.9987 33.8114L16.0675 30.9401Z" fill="white"/>
<path d="M22.5163 38.5126L21.5838 35.6426L20.6513 38.5126H17.6325L20.0738 40.2863L19.1413 43.1563L21.5838 41.3826L24.0238 43.1563L23.0925 40.2863L25.5325 38.5126H22.5163Z" fill="white"/>
<path d="M13.3838 19.7012L10.615 13.3975H10.5275V21.8112C10.5293 21.8406 10.5249 21.87 10.5145 21.8975C10.5041 21.9251 10.4879 21.9501 10.4671 21.9709C10.4463 21.9917 10.4213 22.0078 10.3938 22.0182C10.3663 22.0286 10.3369 22.0331 10.3075 22.0312H7.825C7.79569 22.0329 7.76635 22.0283 7.73892 22.0178C7.7115 22.0073 7.68659 21.9912 7.66582 21.9704C7.64506 21.9497 7.62891 21.9247 7.61843 21.8973C7.60795 21.8699 7.60337 21.8406 7.605 21.8112V7.31124C7.60336 7.28197 7.60793 7.25269 7.61842 7.22532C7.62891 7.19795 7.64508 7.17312 7.66587 7.15245C7.68665 7.13178 7.71158 7.11575 7.73901 7.10542C7.76644 7.09508 7.79575 7.09068 7.825 7.09249H10.44C10.5144 7.08486 10.5891 7.10223 10.6525 7.14184C10.7159 7.18146 10.7643 7.24106 10.79 7.31124L14.5688 15.835H14.6575L18.375 7.31124C18.401 7.24074 18.4498 7.18093 18.5137 7.14131C18.5775 7.10168 18.6528 7.0845 18.7275 7.09249H21.2975C21.3267 7.09066 21.356 7.09506 21.3833 7.10541C21.4107 7.11575 21.4356 7.1318 21.4562 7.15249C21.4769 7.17318 21.493 7.19804 21.5033 7.22541C21.5137 7.25278 21.5181 7.28204 21.5163 7.31124V21.8112C21.5181 21.8405 21.5137 21.8698 21.5033 21.8972C21.493 21.9247 21.477 21.9496 21.4563 21.9704C21.4356 21.9912 21.4108 22.0073 21.3834 22.0178C21.356 22.0283 21.3268 22.0329 21.2975 22.0312H18.8088C18.7795 22.0329 18.7502 22.0283 18.7228 22.0178C18.6955 22.0073 18.6706 21.9912 18.65 21.9704C18.6293 21.9496 18.6133 21.9247 18.6029 21.8972C18.5926 21.8698 18.5882 21.8405 18.59 21.8112V13.3975H18.5L15.7313 19.7012C15.7022 19.7881 15.6456 19.863 15.57 19.9147C15.4944 19.9664 15.404 19.9919 15.3125 19.9875H13.8C13.7089 19.9916 13.619 19.9659 13.5439 19.9142C13.4687 19.8625 13.4125 19.7878 13.3838 19.7012Z" fill="white"/>
<path d="M23.7412 22.0314H33.4738C33.5031 22.0331 33.5324 22.0285 33.5598 22.018C33.5873 22.0075 33.6122 21.9914 33.6329 21.9706C33.6537 21.9499 33.6698 21.9249 33.6803 21.8975C33.6908 21.8701 33.6954 21.8408 33.6937 21.8114V19.3752C33.6954 19.3459 33.6908 19.3165 33.6803 19.2891C33.6698 19.2617 33.6537 19.2368 33.6329 19.216C33.6122 19.1952 33.5873 19.1791 33.5598 19.1686C33.5324 19.1581 33.5031 19.1536 33.4738 19.1552H26.8838C26.8657 19.1579 26.8473 19.1564 26.83 19.1507C26.8126 19.1451 26.7969 19.1354 26.784 19.1225C26.7711 19.1096 26.7614 19.0938 26.7557 19.0765C26.75 19.0592 26.7485 19.0407 26.7513 19.0227V7.31144C26.7529 7.28217 26.7483 7.25289 26.7378 7.22552C26.7273 7.19815 26.7112 7.17332 26.6904 7.15265C26.6696 7.13198 26.6447 7.11595 26.6172 7.10562C26.5898 7.09528 26.5605 7.09088 26.5312 7.09269H23.7412C23.712 7.09086 23.6828 7.09526 23.6554 7.10561C23.628 7.11595 23.6032 7.132 23.5825 7.15269C23.5618 7.17338 23.5458 7.19824 23.5354 7.22561C23.5251 7.25298 23.5207 7.28224 23.5225 7.31144V21.8114C23.5207 21.8407 23.5251 21.87 23.5354 21.8974C23.5458 21.9249 23.5618 21.9498 23.5825 21.9706C23.6031 21.9914 23.628 22.0075 23.6553 22.018C23.6827 22.0285 23.712 22.0331 23.7412 22.0314Z" fill="white"/>
<path d="M41.7987 13.0451L41.0087 12.9351C39.295 12.6938 38.68 12.1451 38.68 11.2888C38.68 10.3426 39.36 9.66385 40.68 9.66385C41.91 9.66385 43.0075 10.0588 44.1512 10.8063C44.1756 10.8224 44.203 10.8334 44.2318 10.8388C44.2605 10.8441 44.2901 10.8436 44.3186 10.8373C44.3472 10.831 44.3742 10.819 44.398 10.8021C44.4219 10.7852 44.4421 10.7637 44.4575 10.7388L45.7987 8.73885C45.9075 8.5851 45.8862 8.4976 45.755 8.4101C44.505 7.4426 42.6562 6.8501 40.68 6.8501C37.45 6.8501 35.385 8.67385 35.385 11.4201C35.385 14.0563 37.0762 15.4838 40.1087 15.9013L40.9 16.0101C42.6787 16.2526 43.2062 16.8026 43.2062 17.6813C43.2062 18.7351 42.3312 19.4601 40.7675 19.4601C39.1862 19.4601 37.8462 18.7101 36.8575 17.9226C36.8353 17.9006 36.8087 17.8836 36.7794 17.8727C36.7501 17.8618 36.7189 17.8571 36.6877 17.8591C36.6565 17.8611 36.6261 17.8697 36.5985 17.8843C36.5709 17.8989 36.5467 17.9192 36.5275 17.9438L34.8587 19.8551C34.8129 19.9081 34.7895 19.9769 34.7935 20.0469C34.7974 20.1169 34.8285 20.1826 34.88 20.2301C36.0437 21.3551 38.3062 22.2738 40.6362 22.2738C44.5025 22.2738 46.5025 20.2738 46.5025 17.5726C46.5025 14.8713 44.8775 13.4638 41.8 13.0463" fill="white"/>
<path d="M77.26 1.89884V0.183838H0.739999V1.89884C0.739999 1.89884 0.739999 30.8076 0.739999 30.9801C0.72127 42.495 4.47763 53.6987 11.4337 62.8751C11.5412 63.0176 11.6512 63.1588 11.7612 63.3001L1.7175 73.3426L4.14375 75.7688L13.955 65.9576C16.7537 69.1295 19.9216 71.9554 23.3913 74.3751C28.0096 77.6016 33.1163 80.0651 38.5163 81.6713L39.0062 81.8163L39.4963 81.6713C44.8925 80.0651 49.7787 77.2963 54.6212 74.3751C60.4462 70.8501 63.7463 67.1751 66.5788 62.8751C69.6813 58.1676 72.6287 53.4088 74.4437 48.0963C76.3248 42.5873 77.2815 36.8051 77.275 30.9838C77.2625 30.8076 77.26 1.89884 77.26 1.89884ZM14.1687 60.8001C7.66386 52.2212 4.15111 41.7462 4.16875 30.9801C4.16875 30.8338 4.16875 9.83384 4.16875 3.61509H71.4425L14.2075 60.8501C14.195 60.8338 14.1812 60.8176 14.1687 60.8001ZM71.185 46.9826C68.6562 54.3559 64.4237 61.0287 58.8314 66.4588C53.239 71.8889 46.4445 75.9232 39 78.2338C30.2457 75.5185 22.4174 70.4256 16.3875 63.5226L73.8288 6.08134C73.8288 14.0963 73.8288 30.8488 73.8288 30.9801C73.8353 36.4235 72.942 41.8305 71.185 46.9826Z" fill="white"/>
</svg>
